<?xml version="1.0" encoding="utf-8"?>
<!-- Generator: Adobe Illustrator 21.0.1, SVG Export Plug-In . SVG Version: 6.00 Build 0)  -->
<svg version="1.1" id="Слой_1" xmlns="http://www.w3.org/2000/svg" xmlns:xlink="http://www.w3.org/1999/xlink" x="0px" y="0px"
	 viewBox="0 0 24 24" style="enable-background:new 0 0 24 24;" xml:space="preserve">
<style type="text/css">
	.st0{fill:none;}
	.st1{fill:#3F3F3F;}
</style>
<g>
	<path class="st0" d="M0,0h24v24H0V0z"/>
	<path class="st1" d="M14.1,14.6l2.6-2.6H7v-2h9.7l-2.6-2.6L15.5,6l5,5l-5,5L14.1,14.6z M19,2c1.1,0,2,0.9,2,2v4.7l-2-2V4H5v14h14
		v-2.7l2-2V18c0,1.1-0.9,2-2,2H5c-1.1,0-2-0.9-2-2V4c0-1.1,0.9-2,2-2H19z"/>
</g>
</svg>
